<svg width="620" height="230" viewBox="0 0 620 230" fill="none" xmlns="http://www.w3.org/2000/svg">
  <defs><linearGradient id="g" x1="0" y1="0" x2="620" y2="230"><stop stop-color="#120B0D"/><stop offset="1" stop-color="#190D15"/></linearGradient></defs>
  <rect x="1" y="1" width="618" height="228" rx="22" fill="url(#g)" stroke="#FB7185" stroke-opacity=".3"/>
  <circle cx="550" cy="42" r="88" fill="#F43F5E" fill-opacity=".055"/>
  <g transform="translate(32 31)">
    <rect width="58" height="58" rx="17" fill="#F43F5E" fill-opacity=".12"/>
    <path d="M29 11L44 17V29C44 40 38 47 29 51C20 47 14 40 14 29V17L29 11Z" stroke="#FDA4AF" stroke-width="2.5"/>
    <path d="M22 30L27 35L37 24" stroke="#FDA4AF" stroke-width="2.5" stroke-linecap="round" stroke-linejoin="round"/>
  </g>
  <text x="108" y="58" font-family="Segoe UI, Arial" font-size="26" font-weight="750" fill="#F8FAFC">PentaBar</text>
  <text x="108" y="83" font-family="Consolas, monospace" font-size="13" letter-spacing="1.6" fill="#FDA4AF">MOBILE SECURITY TOOLKIT</text>
  <text x="32" y="126" font-family="Segoe UI, Arial" font-size="16" fill="#CBD5E1">A focused web-security and penetration-testing</text>
  <text x="32" y="151" font-family="Segoe UI, Arial" font-size="16" fill="#CBD5E1">toolkit designed for Android workflows.</text>
  <g transform="translate(32 177)" font-family="Consolas, monospace" font-size="12">
    <rect width="82" height="28" rx="14" fill="#281116"/><text x="16" y="18" fill="#FECDD3">ANDROID</text>
    <rect x="92" width="74" height="28" rx="14" fill="#241016"/><text x="109" y="18" fill="#FDA4AF">SECURITY</text>
    <text x="484" y="19" fill="#FDA4AF">VIEW PROJECT  ↗</text>
  </g>
</svg>
